<svg width="9" height="9" viewBox="0 0 9 9" fill="none" xmlns="http://www.w3.org/2000/svg">
<path d="M5.0879 4.50011L8.1254 1.46261C8.19366 1.3829 8.22933 1.28037 8.22528 1.1755C8.22122 1.07064 8.17775 0.971164 8.10355 0.896958C8.02934 0.822752 7.92987 0.77928 7.825 0.775229C7.72014 0.771179 7.6176 0.806848 7.5379 0.875109L4.5004 3.91261L1.4629 0.870942C1.38319 0.802681 1.28066 0.767012 1.17579 0.771063C1.07093 0.775113 0.971451 0.818585 0.897245 0.892791C0.823039 0.966997 0.779567 1.06647 0.775516 1.17134C0.771466 1.2762 0.807135 1.37873 0.875396 1.45844L3.9129 4.50011L0.871229 7.53761C0.827612 7.57496 0.792187 7.62093 0.767177 7.67262C0.742167 7.72432 0.728113 7.78062 0.725896 7.838C0.72368 7.89539 0.733349 7.95261 0.754297 8.00608C0.775245 8.05955 0.807019 8.10811 0.847625 8.14871C0.888231 8.18932 0.936793 8.22109 0.990261 8.24204C1.04373 8.26299 1.10095 8.27266 1.15833 8.27044C1.21572 8.26822 1.27202 8.25417 1.32372 8.22916C1.37541 8.20415 1.42138 8.16873 1.45873 8.12511L4.5004 5.08761L7.5379 8.12511C7.6176 8.19337 7.72014 8.22904 7.825 8.22499C7.92987 8.22094 8.02934 8.17747 8.10355 8.10326C8.17775 8.02905 8.22122 7.92958 8.22528 7.82471C8.22933 7.71985 8.19366 7.61732 8.1254 7.53761L5.0879 4.50011Z" fill="white"/>
</svg>
