<svg width="82" height="57" viewBox="0 0 82 57" fill="none" xmlns="http://www.w3.org/2000/svg">
<path d="M0.630859 0.749988C5.53931 18.0876 10.5233 35.193 15.4317 52.7628H18.3768C18.1503 53.6142 18.8299 53.6916 19.132 54.543C19.3585 55.2396 19.3585 55.9362 19.3585 56.7876C19.8871 56.2458 19.8871 55.7814 20.1137 55.2396C20.3402 54.543 20.8688 54.0786 20.8688 53.2272L21.5484 54.7752C21.8505 54.543 21.8505 54.2334 22.077 54.0012C22.3036 54.2334 22.3036 54.7752 22.8322 55.0074C23.0587 55.5492 23.0587 56.2458 23.0587 56.7876C23.2853 56.5554 23.0587 56.091 23.2853 55.5492V49.2024C24.1159 48.9702 24.418 48.738 25.2487 48.738C25.5507 48.9702 25.7017 48.9702 26.2303 49.2024C26.0038 51.6018 26.0038 53.769 26.0038 56.2458C26.7589 55.0074 26.1548 53.4594 27.212 52.221C27.5896 51.9888 27.7406 51.6018 27.7406 51.2148C27.7406 51.7566 27.7406 51.9888 27.9672 52.5306C28.7978 53.5368 28.4958 54.7752 28.4958 55.7814H29.1754C29.4775 54.7752 29.1754 53.5368 29.4775 52.5306V55.2396C30.0061 55.2396 30.4592 55.5492 31.1388 55.5492C30.9123 55.0074 30.9123 54.543 31.1388 54.0012C31.4409 53.769 31.8939 53.5368 31.8939 53.2272C32.7246 52.995 33.1022 52.995 33.6308 52.995L47.6765 0.749988C43.7498 0.749988 39.5209 0.517792 35.5942 0.749988C32.347 12.9018 29.1754 24.6666 25.7773 36.8184C25.5507 37.6698 25.5507 38.5212 25.0221 39.3726C21.4729 26.4468 18.4523 13.7532 14.9031 0.749988H0.630859ZM16.4134 50.2086C16.4134 50.9826 16.8665 49.7442 16.4134 50.2086V50.2086ZM32.6491 49.7442C32.8756 49.9764 33.4042 49.7442 33.1777 49.4346C32.8756 49.2024 32.4225 49.4346 32.6491 49.7442ZM15.8848 49.4346H16.4134V49.2024H15.8848V49.4346ZM33.4042 47.4222C33.1777 47.7318 33.4042 47.964 33.6308 47.7318C33.8573 47.4222 33.6308 47.19 33.4042 47.4222ZM27.7406 47.19C27.5141 47.4222 26.9855 47.7318 27.212 47.964C27.8162 48.4284 28.3448 47.19 27.7406 47.19ZM50.093 42.6234C50.093 42.933 50.093 43.1652 50.6216 42.933C50.6216 42.6234 50.6216 42.3912 50.093 42.6234ZM49.6399 42.6234C49.6399 43.3974 50.4706 42.3912 49.6399 42.6234V42.6234ZM61.1936 41.6172C61.4202 41.6172 61.7223 41.6172 61.7223 42.159C61.1936 42.159 60.9671 42.159 61.1936 41.6172ZM57.7955 41.6172C58.022 41.9268 58.2486 42.3912 58.4751 42.159L58.7772 42.3912H59.4568C59.7589 41.8494 59.5323 41.385 59.0037 41.385C59.0037 41.772 58.9282 42.0042 58.7772 42.159C58.7772 41.9268 58.4751 41.6172 58.4751 41.385C58.2486 41.385 58.2486 41.6172 58.022 41.6172H57.7955ZM59.4568 40.611C59.4568 41.1528 59.6834 41.385 60.212 41.385C60.212 41.6172 60.4385 41.9268 60.4385 42.159C60.7406 41.6172 60.7406 41.4624 60.7406 40.9206C60.212 41.1528 59.9854 40.9206 59.4568 40.611ZM47.9031 40.9206C47.9031 40.5336 48.0541 40.3788 48.4317 40.3788V40.9206C49.1113 41.385 48.6582 40.3788 48.6582 40.1466C48.1296 40.1466 47.6765 40.3788 47.9031 40.9206ZM19.8871 34.1094C19.8871 34.3416 20.3402 34.1094 20.3402 33.7998C20.1137 33.258 19.585 33.7998 19.8871 34.1094ZM17.6972 33.1806C17.6217 33.1032 17.6217 33.0258 17.6217 32.7936C17.0931 33.1032 17.3196 33.8772 17.8482 33.3354L17.6972 33.1806ZM13.9214 33.1032C14.45 32.5614 14.45 33.4902 13.9214 33.1032V33.1032ZM14.45 32.5614H14.5256C14.6011 32.5614 14.6766 32.484 14.6766 32.3292V32.097C14.6766 32.2518 14.6766 32.3292 14.7521 32.3292H14.9031L14.6766 31.5552C14.9031 32.097 15.1297 32.1744 15.4317 31.7874C15.6583 31.7874 15.8848 32.097 16.1869 32.097C15.6583 32.097 14.9031 32.0196 15.2052 32.5614C14.9031 32.7936 14.45 32.7936 14.6766 33.3354H13.6949C13.6949 33.5676 13.1663 34.1094 13.6949 34.3416H13.2418C12.7132 33.7998 13.2418 33.7998 13.4684 33.5676C13.2418 33.0258 12.7132 32.7936 12.1846 32.5614C12.4867 32.5614 12.9398 32.5614 13.2418 32.3292H12.7132C12.7132 31.4778 12.4112 30.8586 12.9398 30.0072H12.1846C12.4867 29.775 12.7132 29.5428 13.2418 29.3106C13.4684 30.0072 14.2235 30.4716 13.6949 31.323L13.9214 31.0134C13.9214 31.5552 14.2235 31.7874 14.45 32.097C14.2235 32.097 13.6949 32.3292 13.4684 32.3292V32.097V32.5614H14.45ZM10.7498 30.7812H10.9009C10.9764 30.7812 10.9764 30.936 11.2029 31.0134C11.2029 31.1682 11.1274 31.323 11.0519 31.4004C10.9764 31.4778 10.9764 31.4778 10.9764 31.5552H11.9581C11.7315 31.323 11.7315 30.7812 11.7315 30.549C11.2029 30.549 10.5233 30.0846 11.2029 29.5428C10.6743 29.775 10.5988 30.0846 10.9764 30.549L10.7498 30.7812ZM15.8848 22.7316C15.6583 22.1898 16.4134 21.9576 16.4134 22.1898C16.1869 22.4994 15.8848 22.4994 15.8848 22.7316ZM17.3951 19.9452C17.3951 20.7192 18.2258 19.5582 17.3951 19.9452V19.9452ZM5.31277 5.78099V5.08439C5.31277 5.31659 5.08623 5.54879 4.55762 5.78099H5.31277ZM3.87799 5.54879C4.10454 5.54879 4.10454 5.78099 4.33108 5.78099C4.33108 5.23919 4.55762 5.08439 4.55762 4.77479C4.02902 4.77479 4.10454 5.31659 3.87799 5.54879ZM3.57593 3.76859C3.87799 3.76859 4.55762 4.38779 4.55762 3.53639C4.33108 3.53639 3.87799 3.53639 3.57593 3.76859ZM5.08623 2.29799C5.08623 2.53019 5.01071 2.76239 5.53931 2.76239C5.53931 2.22059 5.61483 2.29799 5.08623 2.29799ZM4.55762 2.06579C4.33108 2.29799 4.55762 2.76239 4.85968 2.76239C5.08623 2.53019 4.85968 1.75619 4.55762 2.06579ZM58.2486 38.1342C58.022 38.676 58.3241 39.1404 57.7955 39.3726C56.0586 32.0196 54.0953 24.8214 52.3584 17.391L48.6582 2.29799C46.4683 9.96059 44.5049 17.3136 42.466 24.9762L43.9763 31.7874C45.4866 37.6698 46.9214 43.5522 48.4317 49.7442H49.8664V50.7504C50.093 50.4408 50.395 50.2086 50.8481 49.9764C51.6788 50.2086 52.1319 50.7504 52.8115 50.9826V51.9888C53.1891 51.6792 53.6422 51.5244 54.0953 51.5244V52.7628L54.5484 52.995C54.5484 52.1436 54.5484 51.5244 55.077 50.9826C55.228 51.1374 55.3035 51.3696 55.3035 51.7566H57.0403V52.995V53.2272C57.2669 51.9888 57.2669 50.9826 57.2669 49.9764C57.4934 49.7442 57.9465 49.7442 58.4751 49.4346C59.3058 49.7442 59.7589 49.7442 60.4385 49.7442V54.2334C60.8161 54.2334 60.9671 54.3108 60.9671 54.543C61.1936 54.0012 61.1936 53.769 61.4202 53.5368C61.4202 52.995 61.4202 52.5306 61.7223 51.9888C62.1753 52.221 62.4019 52.608 62.4019 52.995C62.4019 51.7566 63.157 50.4408 63.4591 49.2024C63.4591 50.0538 63.6856 50.3634 63.9122 51.2148C64.1387 52.221 64.4408 53.5368 64.1387 54.7752H64.4408C64.6673 52.995 64.4408 50.9826 65.4225 49.2024L66.1021 50.7504H67.0838C67.5369 50.9826 67.8389 51.2922 68.0655 51.7566C72.5964 34.419 77.1272 17.778 81.6581 0.749988H67.0838L58.2486 38.1342ZM65.649 14.682C65.1204 14.9142 64.8939 15.1464 65.1204 15.3786C65.4225 15.3786 65.649 15.1464 65.8756 15.1464C65.649 15.3786 65.1204 15.6882 64.8939 15.3786C64.8939 15.6108 65.0449 15.9204 65.4225 16.1526C65.0449 16.1526 64.8184 16.0752 64.6673 15.9204C64.6673 15.6882 64.8939 15.2238 64.8939 14.682H65.649ZM70.1044 18.939C70.3309 18.939 70.5575 18.939 70.3309 19.4808C70.1044 19.4808 69.8023 19.4808 70.1044 18.939ZM50.8481 19.9452C50.4706 20.7966 51.6033 19.9452 50.8481 19.9452V19.9452ZM69.3492 21.9576V22.4994C69.0472 22.9638 68.7451 23.1186 68.3675 22.9638C68.5941 22.7316 69.0472 22.4994 69.3492 21.9576L68.8206 22.1898L68.5941 21.9576H69.3492ZM64.8939 24.5118C65.1204 25.2084 65.649 23.8926 64.8939 24.5118V24.5118ZM51.3767 26.9886C51.3767 27.2982 50.8481 27.2982 50.8481 27.5304C50.3195 27.7626 50.3195 26.9886 50.8481 26.9886H51.3767ZM70.5575 27.7626C70.3309 27.2208 70.5575 26.9886 70.784 27.2982C71.0861 27.5304 70.784 27.7626 70.5575 27.7626ZM71.7657 28.5366C71.7657 29.388 72.5209 27.9174 71.7657 28.5366V28.5366ZM72.0678 29.001C72.0678 29.775 72.5209 28.5366 72.0678 29.001V29.001ZM69.0472 32.3292C69.3492 32.097 69.5003 31.0134 70.3309 31.5552C70.1044 32.4066 70.5575 32.3292 71.0861 32.3292C70.784 32.3292 70.3309 32.5614 70.1044 32.5614C69.8023 32.0196 69.5758 31.7874 69.3492 32.3292H69.0472ZM46.1662 31.5552C46.4683 31.7874 46.4683 32.097 46.6948 32.3292H46.1662C46.4683 32.5614 46.9214 33.1032 47.45 33.1032H46.6948C46.6948 33.258 46.7703 33.3354 46.9214 33.4128L47.1479 33.5676C46.9214 34.1094 46.9214 34.3416 46.9214 34.5738H46.1662V34.3416L45.9397 34.1094H46.0907C46.1662 34.1094 46.2417 34.2642 46.4683 34.3416V33.7998C46.4683 33.5676 46.6948 33.5676 46.9214 33.3354C46.7703 33.3354 46.6948 33.258 46.6193 33.1032L46.4683 32.7936C46.1662 33.1032 45.9397 33.3354 45.7131 32.7936H46.1662C45.9397 32.5614 45.9397 32.3292 45.7131 32.3292H46.1662V31.5552ZM54.3218 32.3292C54.8504 32.097 54.6239 33.3354 54.0953 32.7936C54.0953 32.6388 54.1708 32.484 54.3218 32.3292ZM69.0472 33.7998C68.8206 33.258 69.0472 33.3354 69.3492 33.3354C69.5758 33.8772 69.3492 33.7998 69.0472 33.7998ZM70.3309 33.3354L70.1799 33.4902C70.1044 33.5676 70.1044 33.645 70.1044 33.7998H70.784C70.2554 33.7998 69.8778 34.1094 69.0472 34.1094H69.5758C69.8023 33.7998 69.8023 33.5676 70.1044 33.3354H70.3309ZM48.1296 36.1218V38.1342L47.6765 37.5924V36.1218H48.1296ZM64.8939 38.5986C64.8939 38.0568 64.8939 37.3602 65.4225 37.128V38.5986H64.8939ZM50.093 38.1342C50.093 38.3664 50.395 38.5986 50.395 38.9082C51.2257 38.5986 51.5278 39.6048 52.3584 39.6048C51.8298 40.1466 51.2257 40.3788 50.395 40.9206V40.611H50.8481C50.6971 40.4562 50.6216 40.224 50.6216 39.9144C50.9992 39.9144 51.1502 39.6822 51.1502 39.1404H49.8664C49.8664 38.9082 49.942 38.3664 49.4134 38.3664H50.093V38.1342ZM56.5117 38.3664C56.7383 39.2178 57.0403 40.0692 57.0403 40.9206C56.8138 41.1528 56.7383 41.2302 56.7383 41.2302C56.6628 41.3076 56.6628 41.3076 56.7383 41.385V41.1528C57.0403 41.1528 57.4934 41.1528 57.7955 41.385C57.4934 41.1528 57.4934 40.9206 57.2669 40.611C57.7955 40.0692 58.4751 40.4562 58.7772 39.9144C59.0037 39.3726 59.0037 38.9082 59.2303 38.3664H59.9854C59.6078 38.3664 59.3813 38.4438 59.2303 38.5986C59.7589 38.9082 60.363 38.9082 61.1936 38.9082C60.363 39.45 61.1936 39.6048 61.7223 39.9144C61.5712 39.9144 61.4202 39.9918 61.3447 40.0692C61.2692 40.1466 61.2692 40.1466 61.1936 40.1466C61.4202 40.3788 61.1936 40.8432 60.9671 41.385H61.7223C61.4957 41.2302 61.4202 40.998 61.4202 40.611L61.9488 41.1528C61.7223 41.6946 61.7223 42.0816 61.7223 42.6234L61.4202 42.933V43.3974C61.1936 43.32 61.1936 43.1652 61.1181 43.1652H60.9671L60.7406 43.3974C60.4385 43.1652 60.212 43.1652 60.212 42.6234L59.9854 42.933C60.1364 42.933 60.212 43.0878 60.212 43.3974C60.1364 43.3974 59.9854 43.3974 59.9099 43.32C59.6834 43.2426 59.5323 43.1652 59.4568 43.1652V43.6296V42.6234C59.1548 42.6234 59.0037 42.7008 59.0037 42.933L58.7772 42.6234L58.4751 42.933L58.3241 42.7782C58.2486 42.7008 58.0975 42.6234 58.022 42.6234V43.3974C57.7955 42.8556 57.7955 42.4686 57.7955 41.9268C57.2669 42.159 56.0586 42.6234 56.7383 43.1652C56.5872 43.32 56.5117 43.5522 56.5117 43.9392V43.1652L56.0586 43.3974L56.2852 43.6296C56.1342 43.8618 55.9076 43.9392 55.53 43.9392V43.6296C55.0014 43.9392 54.7749 43.707 54.7749 43.1652L54.6239 43.4748C54.5484 43.5522 54.5484 43.707 54.5484 43.9392V43.3974H54.3218C54.1708 43.3974 54.0953 43.4748 54.0953 43.6296C54.0953 43.3974 54.3218 43.3974 54.3218 43.1652C54.3218 42.933 54.0953 42.933 54.0953 42.6234C54.3218 42.3912 54.5484 42.6234 54.7749 42.6234V41.385C54.2463 41.385 54.0953 40.9206 53.5667 40.611H54.5484C54.5484 40.998 54.6994 41.385 55.077 41.6172C54.7749 41.9268 54.7749 42.159 55.077 42.3912V43.1652C55.3035 42.933 55.3035 42.6234 55.53 42.3912C55.6811 42.3912 55.8321 42.3138 56.0586 42.159C55.7566 42.159 55.53 41.9268 55.3035 41.9268L55.53 41.1528C55.53 41.3076 55.6056 41.4624 55.7566 41.6172V40.9206H56.0586C56.0586 40.0692 56.0586 39.6048 56.7383 39.6048C56.4362 39.6048 56.2852 39.45 56.2852 39.1404V38.5986L56.5117 38.3664ZM48.4317 39.1404C48.4317 39.2178 48.4317 39.2178 48.5072 39.2952C48.5827 39.3726 48.6582 39.5274 48.6582 39.6048C48.6582 38.9082 49.6399 38.9082 49.4134 39.6048H50.093C49.8664 39.9144 49.8664 40.1466 49.6399 40.3788C49.8664 39.837 49.942 39.3726 49.1113 39.6048C49.1113 40.4562 49.6399 41.1528 49.4134 42.159C49.7154 42.159 49.8664 42.3138 49.8664 42.6234C50.1685 42.3138 50.395 42.159 50.6216 42.159C50.8481 42.159 50.8481 42.6234 51.1502 42.6234H51.6033C51.0747 42.6234 50.3195 43.0878 50.8481 43.6296C50.3195 43.6296 49.942 44.1714 49.4134 43.9392V43.1652L49.1113 43.6296C48.8848 43.6296 48.4317 43.6296 48.1296 43.9392C48.4317 43.0878 48.8848 42.7008 49.1113 42.159L48.6582 41.6172C48.6582 41.772 48.5827 41.9268 48.5072 42.0042C48.4317 42.0816 48.4317 42.0816 48.4317 42.159V43.1652H48.1296L47.9031 43.6296C47.6765 42.3912 47.3745 41.3076 47.1479 40.3788C47.5255 40.0692 47.8275 39.9144 47.9031 39.9144H46.9214C47.1479 39.3726 47.601 39.1404 48.1296 39.1404V38.5986L48.4317 39.1404ZM63.157 39.3726C63.4591 39.9144 63.6101 40.3788 64.1387 40.611C64.1387 40.8432 64.0632 40.9206 63.9877 40.9206C63.9122 40.998 63.9122 40.998 63.9122 40.9206L63.6856 41.385L63.5346 41.5398C63.4591 41.6172 63.4591 41.6946 63.4591 41.9268C62.855 41.5398 62.4019 41.5398 62.1753 41.9268C62.855 41.2302 62.1753 40.4562 62.4019 39.6048C62.7039 40.1466 62.7039 40.611 62.9305 40.9206L63.157 40.611L63.6856 41.1528C63.4591 40.611 63.157 40.224 63.157 39.3726ZM68.3675 40.9206C68.5186 40.9206 68.5941 40.7658 68.5941 40.3788C68.3675 40.998 68.4431 41.385 68.8206 41.6172C68.8206 41.385 68.8206 40.9206 69.0472 40.611C69.3492 40.9206 69.8023 41.385 69.8023 41.9268C69.5758 42.159 69.0472 42.159 68.8206 42.3912C68.6696 42.3912 68.5941 42.3912 68.5186 42.3138L68.3675 42.159L68.5941 41.9268C68.5941 41.4624 68.3675 41.1528 67.8389 40.9206H68.3675ZM51.1502 41.1528V41.385C51.6788 40.8432 52.1319 41.9268 51.6033 42.159C51.5278 42.159 51.3767 42.159 51.3012 42.0816C51.0747 42.0042 50.9236 41.9268 50.8481 41.9268C51.2257 41.9268 51.3767 41.8494 51.3767 41.6172L51.2257 41.4624L50.8481 41.1528H51.1502ZM64.4408 40.9206C64.6673 41.1528 64.6673 41.6172 64.6673 41.9268H65.4225L65.2714 41.772C65.1959 41.6946 65.1204 41.5398 65.1204 41.385H65.649C65.649 41.4624 65.649 41.4624 65.7245 41.5398C65.8 41.6172 65.8756 41.772 65.8756 41.9268C65.347 41.9268 64.8939 41.9268 64.6673 42.159C64.6673 42.7008 64.2142 43.1652 63.6856 42.933C63.5346 42.933 63.4591 43.0104 63.4591 43.1652V43.3974C63.2325 43.3974 63.157 43.32 63.157 43.1652C63.5346 42.933 63.5346 42.6234 63.157 42.3912C63.4591 42.3912 63.9122 42.159 64.1387 42.159H63.6856C63.9122 41.4624 64.2142 41.0754 64.4408 40.9206ZM69.0472 42.933C68.8206 42.6234 69.0472 42.3912 69.3492 42.6234C69.5758 42.933 69.3492 43.1652 69.0472 42.933ZM64.1387 43.6296C64.4408 43.9392 64.8939 43.3974 65.4225 43.3974C65.1204 43.6296 65.1959 44.094 64.6673 44.6358C64.4408 44.094 64.4408 43.9392 64.1387 43.6296ZM66.6307 46.416C66.6307 46.1838 66.8572 46.1838 67.0838 45.9516C67.3858 46.4934 67.3858 46.7256 67.3858 46.9578H66.8572V47.4222H67.3858H66.6307C66.8573 47.19 66.7817 46.9578 66.4042 46.7256V46.5708C66.4042 46.4934 66.4797 46.416 66.6307 46.416ZM62.9305 46.9578C63.4591 46.9578 63.4591 46.8804 63.4591 47.4222C63.157 47.4222 62.9305 47.4996 62.9305 46.9578ZM55.3035 47.4222C55.53 47.19 56.2852 47.4222 56.0586 47.964C55.7566 47.964 55.3035 47.7318 55.3035 47.4222ZM61.1936 48.4284C61.3447 48.2736 61.4202 48.351 61.4202 48.738C60.8916 48.9702 60.9671 48.9702 61.1936 48.4284ZM3.12284 1.75619C2.29218 2.06579 2.8963 2.76239 2.8963 3.30419C3.4249 3.30419 3.57593 3.07199 3.87799 2.76239C4.02902 2.99459 4.40659 3.07199 5.08623 3.07199C4.55762 2.76239 4.40659 2.29799 3.87799 2.29799V1.75619C4.85968 1.52399 5.84137 1.75619 6.82306 1.75619C6.82306 2.76239 7.57821 1.75619 7.80476 1.75619C7.80476 2.29799 6.82306 2.06579 6.82306 2.76239H6.59652C7.12512 2.53019 6.82306 2.06579 6.29446 1.75619V2.53019H5.84137L6.06792 3.07199C5.53931 3.30419 5.31277 3.22679 5.08623 3.76859C5.31277 4.07819 5.84137 3.22679 5.84137 3.76859L6.06792 3.92339C6.21895 4.07819 6.29446 4.23299 6.29446 4.31039H6.06792H5.84137C5.4638 4.31039 5.31277 4.38779 5.31277 4.54259C5.84137 4.77479 6.29446 4.77479 6.82306 5.08439C6.89858 4.85219 7.04961 4.92959 7.12512 4.85219C7.20064 4.85219 7.20064 4.85219 7.27615 4.77479C7.27615 5.00699 7.12512 5.23919 6.82306 5.54879C6.29446 5.54879 6.06792 6.09059 5.84137 6.32279V5.54879C5.84137 6.09059 5.61483 6.09059 5.08623 6.32279C5.08623 6.86459 4.78417 7.01939 5.31277 7.56119H4.85968H4.33108C4.33108 7.79339 4.18005 7.87079 3.87799 7.87079C3.95351 7.87079 4.10454 7.94819 4.33108 8.02559C4.40659 8.10299 4.48211 8.10299 4.55762 8.10299H4.10454V8.56739L4.55762 8.33519C4.55762 8.72219 4.48211 8.95439 4.33108 9.10919C4.85968 8.87699 5.08623 9.34139 5.31277 9.34139C4.78417 9.34139 4.55762 9.57359 4.55762 10.1154C4.78417 10.1154 4.85968 10.1154 4.9352 10.038L5.08623 9.88319V10.3476L4.78417 10.5024C4.70865 10.5798 4.55762 10.5798 4.33108 10.5798C4.10454 9.10919 3.34939 7.87079 3.57593 6.55499C3.65145 6.63239 3.80248 6.63239 3.87799 6.63239C4.10454 6.70979 4.10454 6.63239 4.33108 6.86459V5.78099C4.02902 6.16799 3.87799 6.47759 3.87799 6.55499C3.57593 6.32279 3.57593 5.78099 3.57593 5.54879C3.34939 5.78099 2.29218 5.31659 3.12284 5.08439C3.34939 4.77479 3.57593 4.85219 3.87799 4.31039C3.34939 4.54259 3.12284 5.08439 2.59424 5.08439L2.8963 4.54259C2.3677 4.31039 2.3677 3.61379 2.59424 3.07199C2.06564 2.68499 1.91461 2.29799 2.14115 1.75619H3.12284ZM10.2212 2.06579C9.99468 1.52399 10.9764 1.75619 11.2029 1.75619C11.0519 1.98839 10.9764 2.22059 10.9764 2.53019C11.2029 2.29799 11.9581 2.60759 12.1846 2.06579C11.9581 2.29799 11.505 2.06579 11.505 1.75619C12.0336 1.75619 12.9398 1.29179 12.9398 2.29799L13.2418 2.06579C13.0153 2.06579 12.9398 1.98839 12.9398 1.91099C12.8642 1.83359 12.8642 1.83359 12.9398 1.75619C13.4684 1.75619 14.45 1.52399 14.45 2.06579C13.9214 2.53019 13.4684 2.76239 13.2418 2.76239L13.4684 3.07199C13.2418 3.61379 12.7132 3.30419 12.4867 3.07199C11.9581 3.07199 11.505 3.30419 11.2029 3.30419V2.76239H10.7498C10.9009 2.76239 10.9764 2.83979 10.9764 3.07199V3.30419H9.76814C9.99468 3.07199 9.99468 2.53019 9.99468 2.29799H9.76814C9.84365 2.29799 9.84365 2.29799 9.91917 2.22059C9.99468 2.14319 10.1457 2.06579 10.2212 2.06579ZM37.1045 2.53019C37.331 2.29799 37.7841 2.53019 37.5575 3.07199C37.331 3.30419 36.8024 2.76239 37.1045 2.53019ZM14.2235 2.53019C14.45 2.53019 14.6766 3.07199 14.6766 3.30419H14.2235V2.53019ZM7.27615 3.53639C7.27615 3.30419 8.18233 3.38159 7.80476 3.76859C7.42718 3.76859 7.27615 3.69119 7.27615 3.53639ZM12.1846 5.78099C12.1846 6.09059 11.9581 6.09059 11.9581 6.32279L12.7132 7.09679H12.9398V6.55499C12.9398 7.09679 13.7704 7.79339 12.9398 8.33519C12.7132 8.56739 12.2601 8.56739 11.7315 8.56739H11.9581C11.9581 8.02559 12.1846 7.87079 12.4867 7.56119L12.7132 8.10299H12.9398C12.4112 7.25159 12.1846 6.86459 11.9581 6.32279V5.54879L12.1846 5.78099ZM37.1045 6.86459C36.8024 6.32279 37.1045 6.32279 37.331 6.32279C37.331 6.86459 37.331 6.86459 37.1045 6.86459ZM5.53931 6.32279C6.06792 6.55499 6.06792 7.32899 6.29446 7.56119C6.59652 8.10299 6.82306 8.56739 7.04961 8.87699L6.82306 9.10919H6.67204C6.59652 9.10919 6.44549 9.03179 6.29446 8.87699L6.82306 8.56739C6.67204 8.41259 6.44549 8.33519 6.06792 8.33519V9.10919C6.59652 9.10919 6.29446 9.57359 6.59652 10.1154C6.59652 9.72839 6.67204 9.49619 6.82306 9.34139L7.04961 9.57359C7.04961 9.88319 6.82306 10.1154 6.82306 10.3476C7.04961 10.1154 7.57821 10.1154 7.80476 10.1154C7.80476 10.5024 7.57821 10.5798 7.04961 10.3476L7.27615 10.8894C7.12512 10.6572 7.04961 10.5024 7.04961 10.3476C6.82306 11.3538 5.53931 9.88319 6.29446 9.88319C6.29446 9.03179 5.84137 9.10919 5.31277 9.34139C5.31277 8.79959 5.08623 8.41259 5.08623 7.87079C5.31277 7.87079 5.84137 7.56119 5.84137 8.10299L6.06792 8.33519C5.84137 7.94819 5.84137 7.48379 6.06792 7.09679H5.53931V6.32279ZM10.9764 9.10919C11.2029 9.10919 11.9581 9.34139 11.7315 9.88319L11.2029 9.57359C10.9764 9.57359 10.7498 9.34139 10.9764 9.10919ZM9.23954 10.1154C10.2212 10.1154 10.9009 10.3476 11.7315 10.3476C12.2601 11.199 12.1846 11.8182 12.7132 12.6696C12.4867 12.6696 12.1846 12.36 11.9581 12.36V12.9018C11.1274 12.6696 10.5988 12.1278 9.76814 12.6696H9.23954C9.54159 12.6696 9.76814 12.36 9.99468 12.1278C10.2212 12.36 10.7498 12.1278 10.9764 11.8956C10.1457 11.8956 10.2212 11.1216 10.2212 10.5798H9.76814C9.54159 10.5798 9.54159 10.3476 9.23954 10.1154ZM8.25784 11.3538L7.57821 12.1278C7.35167 11.973 7.27615 11.7408 7.27615 11.3538H8.25784ZM7.04961 12.36C7.04961 12.4374 7.04961 12.4374 7.12512 12.5148C7.20064 12.5922 7.27615 12.747 7.27615 12.9018L7.57821 12.36L7.80476 12.6696V13.134C7.27615 13.3662 7.27615 13.5984 7.04961 14.1402C7.04961 13.908 6.82306 13.6758 6.82306 13.3662C7.04961 13.134 6.59652 12.9018 6.29446 12.6696C6.82306 12.9018 7.04961 12.747 7.04961 12.36ZM40.0495 12.9018C40.2006 12.9018 40.2761 12.9018 40.3516 12.8244L40.5026 12.6696C40.2761 12.9018 40.2761 13.134 40.0495 13.6758C39.0678 13.908 39.823 12.9018 40.0495 12.9018ZM11.7315 13.6758C11.9581 13.6758 12.1846 13.908 12.4867 13.908C11.9581 14.1402 12.1846 14.6046 12.1846 15.1464L11.9581 14.9142C12.1846 14.3724 11.7315 14.2176 11.7315 13.6758ZM12.7132 14.9142C12.9398 14.9142 12.9398 14.682 13.2418 14.3724C12.9398 14.9142 13.3173 15.9204 12.4867 15.6882C12.4867 15.3786 12.7132 15.1464 12.7132 14.9142ZM9.99468 15.3786C10.2212 15.1464 10.5233 15.3786 10.2212 15.9204C9.99468 15.9204 9.76814 15.6882 9.99468 15.3786ZM12.7132 16.1526C12.1846 16.1526 11.9581 16.3848 11.7315 16.3848C11.2029 16.3848 10.9009 16.3074 10.7498 16.1526H12.7132ZM12.9398 16.1526C12.5622 17.004 13.6949 16.1526 12.9398 16.1526V16.1526ZM16.8665 17.391C16.8665 17.2362 16.942 17.0814 17.1686 16.9266C17.3951 17.1588 17.3951 17.7006 17.6217 17.9328C17.6217 18.7842 17.1686 18.7068 16.64 18.7068C16.8665 18.165 16.8665 17.9328 16.8665 17.391ZM36.1228 17.1588C36.3493 17.1588 36.5759 16.9266 36.8024 16.9266C36.5759 17.1588 36.6514 17.9328 36.1228 17.9328V17.1588ZM7.57821 19.713C6.59652 19.713 7.04961 18.7068 7.57821 18.939V19.713ZM9.23954 20.7192C9.54159 20.1774 9.16402 19.2486 9.99468 18.7068C9.76814 19.2486 9.76814 19.713 9.54159 19.9452C9.76814 20.487 9.76814 20.7192 9.99468 20.9514V21.1836L10.2212 21.4932C9.99468 21.7254 9.99468 21.9576 10.2212 22.1898C9.99468 22.4994 9.99468 22.9638 9.99468 23.196C9.01299 23.97 9.01299 22.4994 9.54159 21.9576C9.01299 21.7254 9.01299 21.261 9.23954 20.7192ZM16.4134 20.487C16.4134 19.6356 16.3379 18.939 17.1686 18.7068C16.64 19.713 17.6217 19.1712 18.1503 19.1712C17.8482 19.4808 17.8482 19.9452 17.8482 20.1774H18.8299C18.3013 20.1774 18.1503 20.1774 17.8482 20.7192C18.3768 20.7192 18.8299 20.7192 19.3585 20.9514H17.8482C17.6217 20.9514 17.6217 21.1836 17.3951 21.4932C17.1686 22.035 16.4134 21.4932 16.4134 22.1898H16.8665H16.64C16.64 22.5768 16.7155 22.7316 16.8665 22.7316C16.7155 22.8864 16.64 23.196 16.64 23.7378C16.64 23.196 16.4134 22.7316 16.64 22.4994C16.1114 22.4994 16.1869 22.9638 15.8848 23.196C15.7338 23.196 15.6583 23.3508 15.6583 23.7378C15.6583 23.196 15.4317 22.7316 15.4317 22.4994C15.4317 21.9576 15.6583 21.7254 15.8848 21.4932L16.0359 21.648C16.1114 21.7254 16.1869 21.8802 16.1869 21.9576C16.1869 21.8028 16.1869 21.7254 16.2624 21.648L16.4134 21.4932H15.8848C15.8848 20.9514 16.1869 20.7192 16.1869 20.487H16.8665V20.9514V20.1774C16.5645 20.1774 16.4134 20.2548 16.4134 20.487ZM7.80476 20.9514C8.63542 21.1836 8.25784 22.4994 8.0313 23.196C7.80476 22.6542 7.5027 22.035 8.0313 21.1836L7.80476 20.9514ZM9.99468 23.5056C9.76814 24.2022 10.9764 23.5056 9.99468 23.5056V23.5056ZM15.6583 25.518C15.8848 25.518 16.64 25.518 16.8665 25.7502C16.64 26.292 15.8848 26.4468 15.6583 26.9886H16.4134C15.8848 27.2982 15.6583 27.2982 15.6583 27.5304C15.6583 27.6852 15.8093 27.7626 16.1869 27.7626C15.6583 27.7626 15.4317 27.9174 15.4317 28.3044C15.2052 28.3044 14.9031 27.9948 14.6766 27.7626C14.9031 27.5304 15.2052 27.2982 15.4317 26.9886L14.9031 26.7564H15.4317C15.4317 26.2146 15.8848 26.292 16.1869 26.292C16.2624 26.292 16.4134 26.2146 16.4889 26.0598L16.64 25.7502C16.4889 25.5954 16.2624 25.518 15.8848 25.518V25.9824C15.8848 25.7502 15.6583 25.7502 15.6583 25.518ZM18.1503 26.292C18.3768 26.292 18.6034 25.9824 18.8299 25.9824C18.8299 26.292 18.6034 26.7564 18.6034 26.9886C19.132 26.9886 19.3585 26.5242 19.8871 26.7564V27.2982L19.132 26.9886V27.7626L18.6034 27.2982V26.292H18.1503ZM17.3951 26.5242C18.2258 26.5242 18.3768 27.7626 18.1503 28.3044C18.3768 28.3044 18.6034 28.5366 19.132 28.3044C19.132 28.5366 18.8299 28.7688 18.8299 29.001H19.8871H19.3585C19.3585 29.388 19.5095 29.5428 19.8871 29.5428C19.3585 29.5428 18.9054 29.5428 18.3768 29.775C18.3768 30.0072 18.5278 30.2394 18.8299 30.549C18.1503 30.549 17.2441 30.7812 16.4134 30.549C16.5645 30.549 16.64 29.8524 16.64 29.9298C16.64 29.9298 16.64 30.0846 16.64 30.3168C17.1686 30.3168 17.4706 30.3942 17.6217 30.549L17.8482 30.3168L18.3768 30.549C18.1503 30.3168 17.8482 29.3106 17.6217 30.3168H17.3951V29.775H16.8665C17.2441 29.5428 17.3951 29.2332 17.3951 29.001C17.3951 29.8524 18.3768 29.3106 18.3768 28.7688V29.3106H18.8299V29.001C18.8299 28.7688 18.6789 28.7688 18.6034 28.5366C18.3768 28.7688 18.1503 28.7688 17.6217 29.001C17.8482 28.7688 17.8482 28.3044 17.8482 27.9948H18.1503C18.1503 27.7626 17.8482 27.2982 17.8482 26.9886C17.6217 27.2982 17.3951 27.7626 17.1686 27.9948C17.1686 27.453 17.6217 27.066 17.3951 26.5242ZM9.23954 27.2982C9.54159 27.2982 9.54159 26.7564 9.54159 26.5242C10.2212 26.7564 10.5233 26.9112 10.5233 27.7626C10.8253 28.0722 10.9764 28.3044 10.9764 28.5366C11.3539 28.5366 11.505 28.614 11.505 28.7688C11.656 28.614 11.8825 28.5366 12.1846 28.5366C12.1846 29.0784 12.3356 29.3106 12.7132 29.3106C12.4867 29.5428 12.1846 29.5428 11.9581 29.775L12.1091 30.0846C12.1846 30.2394 12.2601 30.3168 12.4867 30.3168H11.9581C12.1846 30.549 12.1846 30.4716 12.4867 31.0134H11.9581V31.323L12.4867 31.0134V31.5552H11.9581C11.9581 31.7874 11.7315 31.7874 11.505 32.097C11.7315 32.3292 11.7315 32.5614 11.9581 32.7936C11.7315 33.3354 11.505 33.5676 11.2029 34.1094L11.7315 33.7998C11.7315 33.9546 11.656 34.1094 11.5805 34.1868C11.505 34.2642 11.505 34.2642 11.505 34.3416C11.5805 34.3416 11.7315 34.419 11.807 34.4964C11.8825 34.5738 11.8825 34.5738 11.9581 34.5738V34.3416H12.4867C12.4867 35.193 11.7315 34.5738 11.2029 34.5738C11.2029 34.032 11.0519 33.645 10.7498 33.3354C10.9764 33.1032 10.9764 32.7936 11.2029 32.7936H10.5233L10.9764 32.3292C10.9764 32.1744 10.9009 32.0196 10.7498 31.7874C9.91917 31.5552 9.99468 30.3942 9.76814 29.5428H10.5233C10.2212 29.3106 9.76814 29.001 9.99468 28.7688H10.7498V28.5366C10.2212 28.5366 10.0702 28.5366 9.54159 28.7688C9.54159 28.227 9.76814 27.5304 9.23954 27.2982ZM31.6674 28.5366C31.1388 28.5366 30.6102 27.5304 31.4409 27.5304C31.6674 27.7626 31.8939 27.9948 31.6674 28.5366ZM16.8665 28.5366C16.64 29.388 17.7727 28.5366 16.8665 28.5366V28.5366ZM16.64 28.7688C16.2624 29.6202 17.3951 28.7688 16.64 28.7688V28.7688ZM31.4409 29.001C31.6674 28.4592 32.196 29.3106 32.196 29.5428C31.8939 29.775 31.1388 29.3106 31.4409 29.001ZM37.331 28.7688C37.5575 28.7688 38.0862 28.7688 38.3127 29.001C37.7841 28.7688 37.5575 28.7688 37.331 29.3106L37.5575 29.5428C37.5575 29.775 37.7841 30.0072 37.7841 30.3168V30.7812C37.5575 30.549 37.331 30.549 37.331 30.3168V30.162C37.331 30.0846 37.4065 29.9298 37.5575 29.775C37.0289 29.775 36.7269 29.8524 36.5759 30.0072C36.5759 29.775 36.8024 29.5428 36.8024 29.3106L37.1045 29.5428C37.2555 29.388 37.331 29.1558 37.331 28.7688ZM29.4775 29.3106C29.7795 29.3106 30.0061 29.2332 30.1571 29.001C30.4592 29.5428 30.4592 30.0072 30.4592 30.549C30.0816 30.8586 29.6285 31.0134 29.1754 31.0134L29.704 31.5552C28.8734 31.5552 28.7223 32.3292 28.1937 32.5614C28.8734 32.5614 29.2509 32.484 29.4775 32.3292C29.704 32.097 29.704 31.8648 29.9306 31.323L30.1571 31.5552L30.4592 31.323V32.3292C30.1571 32.097 29.9306 31.7874 29.704 31.7874C29.704 32.3292 29.6285 32.5614 30.1571 32.5614C30.0061 32.7162 29.855 32.7936 29.704 32.7936C29.3264 32.7936 29.0999 32.7162 28.9489 32.5614L29.1754 33.3354C29.1754 33.1032 28.9489 33.1032 28.9489 32.7936C28.4203 33.1032 28.1937 32.7936 27.9672 32.7936C27.9672 32.5614 28.4958 32.3292 28.1937 31.7874C28.4958 31.5552 28.1937 31.0134 28.4958 31.0134C28.5713 31.0134 28.7223 31.0908 28.7978 31.1682L28.9489 31.323C28.9489 31.0134 28.9489 30.8586 29.1754 30.3168C29.0244 30.4716 28.7978 30.549 28.4958 30.549C28.6468 30.3942 28.7223 30.162 28.7223 29.775C28.9489 30.3168 29.402 30.3942 30.1571 30.0072C30.0816 29.9298 30.0816 29.9298 30.1571 29.8524C30.1571 29.8524 30.2326 29.775 30.4592 29.5428L30.1571 29.3106C29.9306 29.5428 29.704 29.5428 29.4775 29.775V29.3106ZM32.8756 29.5428C33.4042 29.3106 33.8573 29.001 34.3859 29.001V29.3106C33.8573 29.3106 33.8573 29.775 33.6308 30.3168H34.1594C33.9328 30.4716 33.7818 30.549 33.6308 30.549C33.4798 30.3942 33.4042 30.0846 33.4042 29.5428H32.8756ZM17.6217 30.7812C17.6217 31.0134 17.8482 31.323 17.8482 31.5552C18.1503 31.323 18.3768 31.0134 18.6034 31.0134H19.132C19.132 31.4004 19.0564 31.5552 18.8299 31.5552C19.6606 31.5552 19.283 30.7812 20.1137 31.0134V31.5552C19.585 32.097 19.3585 32.5614 19.132 33.1032C19.3585 33.1032 19.585 32.7936 19.8871 32.7936L20.1137 33.3354C20.1137 32.7936 19.8116 32.3292 20.3402 31.7874C21.1709 32.3292 20.8688 33.0258 21.0953 33.5676C21.6239 33.7998 22.0015 33.5676 22.5301 33.5676C22.5301 33.7998 22.8322 34.5738 22.8322 34.806C22.4546 33.5676 21.5484 35.1156 22.3036 35.1156C22.3036 34.806 22.8322 34.806 22.8322 34.5738V35.1156V35.8122H21.5484H22.5301C22.3036 35.2704 21.8505 35.3478 21.5484 35.1156C21.5484 34.8834 21.6239 34.7286 21.8505 34.5738C21.5484 34.5738 21.3219 34.3416 21.0953 34.3416C20.8688 34.5738 20.3402 34.6512 20.1137 34.1094C20.3402 34.4964 20.3402 34.8834 20.1137 35.1156V34.5738C19.585 34.5738 18.9054 35.1156 18.3768 34.5738V35.8122C18.1503 35.8122 17.6217 35.58 17.3951 35.58C17.6217 35.58 18.1503 35.58 18.3768 35.3478C18.1503 34.806 17.8482 34.806 17.6217 34.5738C17.8482 34.5738 18.0748 34.1094 18.6034 34.3416V34.1094H17.6217C16.8665 34.4964 16.8665 33.258 16.64 32.7936C16.4134 33.3354 16.2624 33.5676 16.1869 33.5676V32.5614C16.3379 32.5614 16.5645 32.4066 16.8665 32.097C17.3951 32.3292 17.8482 32.5614 18.3768 33.1032H18.6034C18.5278 33.1032 18.3768 33.1806 18.3013 33.258C18.2258 33.3354 18.2258 33.3354 18.1503 33.3354H18.6034C18.6034 33.4128 18.6034 33.4128 18.6789 33.4902C18.7544 33.5676 18.8299 33.7224 18.8299 33.7998C18.8299 33.1032 19.132 32.3292 18.8299 31.7874C18.6034 31.7874 18.1503 32.097 17.8482 32.097C17.6217 31.2456 16.942 31.7874 16.4134 32.097C16.4889 31.8648 16.64 31.8648 16.7155 31.6326L16.8665 31.323L17.0175 31.4778C17.0931 31.5552 17.1686 31.5552 17.3951 31.5552C17.3951 31.323 17.6217 31.0134 17.6217 30.7812ZM32.8756 31.0134C32.8756 31.7874 33.7063 30.6264 32.8756 31.0134V31.0134ZM31.8939 33.5676C32.196 33.5676 32.4225 33.7998 32.196 34.1094C31.8184 34.4964 31.1388 33.7998 31.8939 33.5676ZM36.8024 34.5738C36.8024 34.2642 36.8779 34.1094 37.1045 34.1094L37.331 34.5738V35.3478H36.8024L37.1045 35.8122C37.1045 35.6574 37.0289 35.58 36.8024 35.58C36.5759 35.58 36.1228 35.58 35.8207 35.8122V35.58C36.3493 35.8122 36.5003 34.806 37.331 35.1156C36.9534 35.1156 36.8024 34.9608 36.8024 34.5738ZM27.212 34.5738C27.8162 34.3416 27.9672 34.4964 27.7406 35.1156C27.212 35.1156 27.212 35.1156 27.212 34.5738ZM33.4042 34.806C33.5553 34.6512 33.6308 34.7286 33.6308 35.1156C33.4042 35.3478 33.1777 35.1156 33.4042 34.806ZM11.505 35.1156C11.656 34.8834 11.7315 34.9608 11.7315 35.3478C11.2029 35.3478 11.2029 35.3478 11.505 35.1156ZM19.132 35.3478C19.3585 35.3478 19.585 35.58 19.8871 35.58C19.8871 35.8122 19.585 36.1218 19.3585 36.354C19.132 36.354 19.132 36.1218 18.8299 35.8122L18.9809 35.6574C19.0564 35.58 19.132 35.4252 19.132 35.3478ZM32.8756 35.3478C32.6491 36.1992 33.7818 35.3478 32.8756 35.3478V35.3478ZM27.8917 35.7348C27.9672 35.8122 28.0427 35.8122 28.1937 35.8122C28.4958 35.8122 29.1754 35.8122 29.1754 36.354C28.6468 36.1218 28.4958 37.128 27.9672 36.8184L27.5141 36.354C27.7406 36.8958 27.9672 37.3602 28.1937 37.5924C28.1937 37.6698 28.1182 37.8246 28.0427 38.0568C27.9672 38.1342 27.9672 38.289 27.9672 38.3664C27.7406 38.1342 26.7589 38.0568 26.9855 38.5986C27.212 38.9082 27.7406 38.8308 27.7406 39.3726H27.9672C27.7406 39.6048 27.7406 39.9144 27.5141 39.9144C27.212 39.3726 27.061 38.8308 26.5324 39.3726V39.9144C26.5324 40.0692 26.4569 40.1466 26.3814 40.1466H26.2303C26.2303 39.1404 26.2303 37.902 27.212 37.3602H27.5141V37.8246C27.5141 37.6698 27.5141 37.5924 27.5896 37.515L27.7406 37.3602C27.7406 36.5088 26.9855 37.128 26.7589 37.128C26.7589 36.8184 26.9855 36.8184 26.9855 36.5862V35.8122C27.212 35.8122 27.5141 35.58 27.7406 35.58L27.8917 35.7348ZM28.4958 37.128C27.8917 37.7472 29.1754 37.128 28.4958 37.128V37.128ZM21.5484 37.5924C21.3219 37.3602 21.5484 37.128 21.8505 37.3602C22.0015 37.515 21.926 37.5924 21.5484 37.5924ZM32.196 37.3602C32.4225 37.128 32.8756 37.2828 32.6491 37.8246C32.4225 37.8246 31.8939 37.5924 32.196 37.3602ZM18.6034 39.3726C18.8299 40.224 18.6034 40.8432 18.8299 41.385C18.6034 40.5336 18.1503 40.4562 17.6217 39.9144C17.8482 40.1466 18.3768 39.9144 18.6034 39.3726ZM26.9855 41.6172C27.1365 41.8494 27.212 42.159 27.212 42.6234C27.212 43.1652 27.6651 43.1652 28.1937 43.1652C28.0427 43.32 27.9672 43.5522 27.9672 43.9392H27.212C26.9855 43.9392 26.5324 44.1714 26.2303 44.1714V43.1652C26.6079 43.4748 26.9855 43.32 27.212 42.6234C26.6834 42.6234 26.5324 42.933 26.2303 43.1652V42.6234C26.4569 42.6234 26.6834 42.4686 26.9855 42.159V41.6172ZM31.4409 41.9268C31.4409 42.159 31.6674 42.159 31.8939 42.3912C31.8939 42.546 31.8184 42.7008 31.7429 42.7782C31.6674 42.8556 31.6674 42.8556 31.6674 42.933H31.1388L31.4409 43.1652C31.1388 43.1652 30.4592 43.0878 30.6857 43.6296C30.8367 43.8618 31.0633 43.9392 31.4409 43.9392C31.0633 44.2488 30.7612 44.4036 30.6857 44.4036C30.6857 43.8618 30.6102 43.5522 30.4592 43.3974L30.1571 43.9392C30.0061 43.707 29.7795 43.4748 29.4775 43.1652L29.1754 43.32C28.9489 43.3974 28.7978 43.5522 28.7223 43.6296C29.1754 43.3974 29.4775 43.0104 29.704 42.6234C29.704 42.933 29.9306 43.1652 29.9306 43.3974C30.1571 42.8556 30.1571 42.3912 30.1571 42.159C30.1571 42.3912 30.4592 42.3912 30.6857 42.6234H30.1571L30.4592 43.1652L30.6102 43.0104L30.9123 42.6234C31.1388 42.6234 31.4409 42.933 31.6674 42.933C31.4409 42.6234 31.4409 42.159 31.4409 41.9268ZM32.4225 42.933C32.4225 42.546 32.6491 42.3912 33.1777 42.3912L32.8001 42.7782L32.6491 42.933C32.6491 43.4748 32.8756 43.6296 33.1777 43.9392C33.3287 43.707 33.5553 43.4748 33.8573 43.1652C34.1594 43.6296 34.3859 43.9392 34.6125 44.1714C34.3859 44.4036 34.3859 44.6358 34.1594 44.6358C33.8573 44.6358 33.4042 44.6358 33.1777 44.4036H32.6491C32.6491 44.2488 32.6491 44.1714 32.7246 44.094L32.8756 43.9392C32.6491 43.4748 32.347 43.1652 31.8939 42.933H32.4225ZM23.8139 42.933C23.8139 43.2426 23.8894 43.4748 24.0404 43.6296C24.267 43.6296 24.7956 43.0878 25.0221 43.9392C24.7956 43.9392 24.4935 44.1714 24.267 44.1714L24.0404 43.9392C23.3608 43.9392 22.9832 43.8618 22.8322 43.6296C23.1342 43.6296 23.2853 43.3974 23.2853 42.933H23.8139ZM19.8871 43.3974C20.1137 42.8556 20.5667 43.3974 20.3402 43.9392C20.1137 44.1714 19.585 43.6296 19.8871 43.3974ZM22.077 44.4036V44.9454C22.2281 44.9454 22.3036 45.1002 22.3036 45.4098C22.077 44.868 21.6239 44.9454 21.0953 45.1776C21.3219 45.1776 21.5484 45.4098 21.8505 45.4098C22.0015 45.642 22.1525 45.7194 22.3036 45.7194C21.775 45.7194 21.5484 45.8742 21.8505 46.416H21.5484C21.5484 46.7256 21.3219 46.7256 21.0953 46.9578V45.4098C20.8688 45.7194 20.5667 45.7194 20.1137 45.4098C20.3402 45.4098 20.8688 45.1776 21.0953 45.1776V44.9454C21.3974 44.9454 21.6239 44.868 21.8505 44.6358L21.5484 44.4036H22.077ZM26.5324 45.1776C27.5141 44.9454 28.1182 44.4036 28.9489 44.6358L28.7978 44.7906C28.7223 44.868 28.5713 44.9454 28.4958 44.9454C28.4958 45.4872 28.1937 45.7194 27.9672 45.9516H28.1937C28.1937 46.1838 27.9672 46.7256 27.9672 46.9578C28.4958 46.7256 28.7223 45.9516 28.9489 45.7194L29.1754 45.9516C29.553 45.9516 29.553 46.029 29.2509 46.1064C29.0999 46.1838 28.9489 46.1838 28.7223 46.1838C28.9489 46.416 29.1754 46.7256 29.4775 46.9578C29.4775 47.1126 29.4775 47.19 29.553 47.2674L29.704 47.4222C29.704 47.6544 29.704 47.7318 29.7795 47.8092L29.9306 47.964C29.7795 47.964 29.553 47.8092 29.1754 47.4222C28.6468 47.964 29.1754 48.738 28.4958 48.9702V47.964C28.1937 47.964 27.9672 48.1962 27.7406 48.1962C27.7406 48.738 27.9672 48.738 28.4958 48.738V49.4346C27.6651 49.7442 27.5141 48.738 27.212 48.1962L27.061 48.351C26.9855 48.4284 26.9855 48.5058 26.9855 48.738C26.7589 48.4284 26.5324 48.1962 26.0038 47.964V47.4222L26.2303 47.19V46.7256C26.5324 47.2674 26.9855 47.19 27.5141 47.19C27.5141 46.9578 27.5141 46.416 27.212 46.1838H27.5141V46.9578H27.9672C27.9672 46.1064 27.9672 45.7968 27.7406 44.9454H26.9855V45.4098H26.2303C25.9283 45.1002 25.7017 44.9454 25.5507 44.9454C26.0038 44.9454 26.3059 45.0228 26.5324 45.1776ZM31.2898 45.7194C31.3653 45.7194 31.4409 45.8742 31.6674 45.9516L32.196 45.7194L31.8939 46.1838H32.4225V46.416H33.1777C32.6491 46.7256 32.6491 46.8804 32.4225 47.4222C32.6491 47.7318 32.8756 47.4222 32.8756 47.19C33.4042 47.19 33.8573 46.7256 34.3859 46.7256C34.3859 47.2674 34.1594 47.4222 34.1594 47.964C33.6308 48.1962 33.4042 48.4284 32.8756 48.1962C33.4042 48.4284 33.6308 48.738 33.8573 48.4284C33.6308 49.4346 33.4042 50.4408 33.1777 51.7566C33.1777 51.3696 33.1022 51.2148 32.8756 51.2148C32.6491 50.9826 32.196 50.7504 31.8939 50.4408C31.8939 50.3634 31.1388 49.125 32.196 49.7442V49.2024C32.1205 49.2024 32.1205 49.2024 32.045 49.125C31.9695 49.0476 31.8184 48.9702 31.6674 48.9702H32.196V47.964L31.6674 48.1962C31.8939 47.6544 31.8939 46.9578 31.6674 46.7256C31.5164 46.7256 31.4409 46.5708 31.4409 46.1838C31.4409 46.1064 31.3653 45.9516 31.2898 45.8742L31.1388 45.7194H31.2898ZM20.3402 46.7256C20.5667 47.3448 21.1709 46.4934 20.3402 46.7256V46.7256ZM18.6034 47.964C18.0748 48.1962 18.0748 47.19 18.6034 47.4222V47.964ZM20.3402 47.4222L20.1892 47.577C20.1137 47.6544 20.1137 47.7318 20.1137 47.964H20.8688C20.3402 48.1962 20.1137 48.1962 19.8871 48.4284C19.585 48.9702 20.0381 50.2086 20.5667 49.2024H20.8688L20.7178 49.3572C20.6423 49.4346 20.5667 49.5894 20.5667 49.7442C20.8688 49.7442 21.5484 49.8216 21.5484 48.9702C21.8505 48.738 22.3036 48.4284 22.5301 48.4284C22.3036 48.9702 21.8505 49.2024 22.077 49.7442H21.0953C21.3974 50.0538 21.6239 50.286 21.8505 50.4408C21.5484 50.4408 21.3219 50.7504 21.0953 50.7504C21.0953 50.4408 20.8688 50.4408 20.8688 50.2086H20.1137C19.8871 50.2086 19.8871 50.4408 19.585 50.7504C19.3585 50.7504 19.132 50.4408 18.8299 50.4408H19.3585C19.132 50.2086 18.8299 49.9764 18.8299 49.7442C18.8299 49.3572 18.9809 49.2024 19.3585 49.2024C19.2075 49.125 19.132 49.0476 19.132 48.8928V48.738H19.3585V48.8928C19.3585 49.0476 19.434 49.125 19.585 49.2024C20.1137 48.6606 19.6606 48.4284 19.132 48.1962V47.7318C19.3585 47.7318 19.3585 47.4222 19.585 47.4222H20.3402ZM21.0953 47.4222C21.0953 48.1962 21.926 47.0352 21.0953 47.4222V47.4222ZM15.4317 48.738C14.9031 48.4284 14.9031 47.7318 15.4317 47.4222V48.4284C15.9603 48.4284 16.3379 48.738 16.8665 48.738V48.9702L17.1686 48.738C17.1686 48.8154 17.1686 48.8154 17.2441 48.8928C17.3196 48.9702 17.3951 49.125 17.3951 49.2024V48.738C17.6217 48.4284 18.1503 48.4284 18.3768 48.1962C18.1503 48.738 17.8482 49.4346 18.3768 49.7442C17.8482 49.7442 17.6217 50.4408 17.3951 50.9826H16.4134C16.4134 51.2148 16.64 51.5244 16.64 51.7566C15.8093 51.5244 15.6583 50.8278 15.6583 49.9764H16.1869V49.4346H15.4317V48.738ZM21.0953 48.1962C21.6239 47.6544 22.2281 47.964 23.0587 47.964C22.2281 47.964 21.8505 48.4284 21.3219 48.738C21.0953 48.738 20.3402 49.2798 20.1137 48.738H20.8688L20.5667 48.1962H21.0953Z" fill="black"/>
</svg>
